<svg width="70" height="66" viewBox="0 0 70 66" fill="none" xmlns="http://www.w3.org/2000/svg">
<path d="M52.4585 0.166626C50.5408 0.166626 48.9585 1.86929 48.9585 3.99996V46.6666H38.2085V52.6666H66.6252V46.6666H55.8752V3.99996C55.8752 1.86929 54.3762 0.166626 52.4585 0.166626ZM20.3752 20.7503C9.21801 20.7503 0.208496 29.4944 0.208496 40.1666V42.5836H2.7085H5.87516C5.84209 42.7863 5.79169 43.0364 5.79169 43.2503V61.6666C5.79169 63.7973 7.49425 65.5 9.62503 65.5H29.625C31.7558 65.5 33.4584 63.7973 33.4584 61.6666V43.2503C33.4584 43.0369 33.4082 42.7873 33.3749 42.5836H38.0416H40.6249V40.1666C40.6249 29.4944 31.532 20.7503 20.3749 20.7503H20.3752ZM20.3752 25.6666C27.8433 25.6666 33.7825 30.8813 35.0418 37.6666H20.3752H5.79183C7.05111 30.8813 12.9071 25.6666 20.3752 25.6666ZM38.2918 55.2503L35.0418 65.8333H69.7918L66.7918 55.2503H38.2918Z" fill="#559EC7"/>
</svg>
