<svg width="59" height="58" viewBox="0 0 59 58" fill="none" xmlns="http://www.w3.org/2000/svg">
<path d="M19.1272 14.8995C18.917 14.8096 18.7379 14.6604 18.6121 14.4704C18.4862 14.2804 18.4192 14.058 18.4191 13.8306C18.4177 13.668 18.4499 13.5069 18.5137 13.3572C18.5775 13.2076 18.6716 13.0725 18.7901 12.9604C18.8624 12.8919 18.9317 12.8243 18.9836 12.7701C19.3503 12.3865 19.6739 11.9642 19.9485 11.5109C20.6711 10.313 21.0293 8.93298 20.98 7.5373C20.9306 6.14162 20.4758 4.78994 19.6704 3.64537C18.865 2.50081 17.7434 1.61226 16.441 1.08695C15.1386 0.561639 13.711 0.422013 12.3305 0.684919C10.9236 0.929634 9.62336 1.58929 8.59893 2.5781C7.57449 3.56691 6.87324 4.8391 6.58639 6.22922C6.32124 7.42608 6.3664 8.67024 6.71766 9.845C7.06891 11.0198 7.71474 12.0867 8.59456 12.9456C8.71399 13.058 8.80961 13.193 8.87581 13.3427C8.94202 13.4924 8.97748 13.6536 8.9801 13.8171V13.823C8.98214 14.0523 8.916 14.2771 8.78999 14.4693C8.66398 14.6614 8.4837 14.8123 8.27173 14.9031C5.36992 16.0973 3.05585 18.3754 1.82735 21.2474C0.963954 23.2142 0.530867 25.3408 0.55676 27.4864V29.0332C0.556787 29.7026 0.824463 30.3446 1.30091 30.818C1.77735 31.2914 2.42354 31.5573 3.09734 31.5573H24.3063C24.9801 31.5573 25.6262 31.2913 26.1026 30.818C26.5791 30.3446 26.8467 29.7026 26.8468 29.0332V27.4716C26.8728 25.3267 26.4389 23.2008 25.574 21.2353C24.3436 18.3658 22.0286 16.0907 19.1272 14.8995Z" fill="#559EC7"/>
<path d="M57.0598 47.1229C55.8294 44.2536 53.5146 41.9786 50.6134 40.7872C50.4031 40.6972 50.224 40.548 50.0981 40.358C49.9723 40.168 49.9052 39.9455 49.9052 39.718C49.9038 39.5555 49.936 39.3945 49.9997 39.2448C50.0635 39.0952 50.1575 38.9601 50.276 38.848C50.3486 38.7795 50.4176 38.7121 50.47 38.6577C50.8369 38.274 51.1605 37.8518 51.4352 37.3984C52.1579 36.2005 52.5161 34.8204 52.4668 33.4247C52.4175 32.029 51.9626 30.6773 51.1572 29.5328C50.3518 28.3882 49.2301 27.4997 47.9277 26.9744C46.6252 26.4491 45.1976 26.3096 43.8171 26.5726C42.4103 26.8173 41.1102 27.4769 40.0858 28.4656C39.0614 29.4543 38.3601 30.7264 38.0731 32.1164C37.8079 33.3133 37.8531 34.5574 38.2044 35.7322C38.5556 36.907 39.2014 37.974 40.0813 38.8329C40.2007 38.9454 40.2962 39.0803 40.3624 39.23C40.4285 39.3796 40.464 39.5408 40.4665 39.7042V39.7104C40.4687 39.9397 40.4026 40.1645 40.2766 40.3566C40.1506 40.5488 39.9703 40.6996 39.7584 40.7903C36.8566 41.9846 34.5425 44.2627 33.314 47.1346C32.4505 49.1015 32.0173 51.2282 32.0431 53.3739V54.9205C32.0431 55.252 32.1088 55.5803 32.2365 55.8865C32.3642 56.1927 32.5514 56.471 32.7873 56.7054C33.0232 56.9397 33.3033 57.1257 33.6116 57.2525C33.9198 57.3793 34.2502 57.4446 34.5839 57.4446H55.7924C56.126 57.4446 56.4564 57.3793 56.7646 57.2525C57.0729 57.1256 57.3529 56.9397 57.5889 56.7053C57.8248 56.471 58.0119 56.1927 58.1396 55.8865C58.2673 55.5802 58.333 55.252 58.333 54.9205V53.359C58.3588 51.2141 57.9248 49.0883 57.0598 47.1229Z" fill="#559EC7"/>
<path d="M25.053 51.061H15.8983C14.7065 51.0596 13.564 50.5887 12.7213 49.7515C11.8786 48.9143 11.4045 47.7791 11.4031 46.5951V42.6691L12.9906 44.0732C13.3448 44.3862 13.8097 44.5466 14.2829 44.5191C14.7561 44.4916 15.1989 44.2785 15.514 43.9266C15.829 43.5747 15.9904 43.1129 15.9628 42.6428C15.9351 42.1726 15.7206 41.7326 15.3664 41.4196L10.8034 37.3847C10.4762 37.0955 10.0535 36.9357 9.61557 36.9357C9.17762 36.9357 8.75492 37.0955 8.4277 37.3847L3.86506 41.4196C3.51088 41.7326 3.29635 42.1726 3.26867 42.6428C3.25497 42.8756 3.28755 43.1087 3.36456 43.329C3.44156 43.5493 3.56149 43.7524 3.71748 43.9266C3.87347 44.1008 4.06248 44.2429 4.27371 44.3445C4.48495 44.4462 4.71426 44.5055 4.94858 44.5191C5.42179 44.5466 5.88662 44.3862 6.2408 44.0732L7.82861 42.6691V46.5951C7.83117 48.7207 8.6822 50.7584 10.195 52.2614C11.7078 53.7644 13.7589 54.6099 15.8983 54.6124H25.053C25.527 54.6124 25.9816 54.4253 26.3168 54.0923C26.6519 53.7593 26.8402 53.3076 26.8402 52.8367C26.8402 52.3658 26.6519 51.9141 26.3168 51.5811C25.9816 51.2481 25.527 51.061 25.053 51.061Z" fill="#559EC7"/>
<path d="M43.399 13.1657V17.1061L41.8132 15.7034C41.4587 15.3941 40.9955 15.2366 40.5245 15.2653C40.0536 15.2939 39.6132 15.5064 39.2993 15.8565C38.9855 16.2065 38.8237 16.6656 38.8492 17.1337C38.8747 17.6017 39.0855 18.0408 39.4356 18.3551L43.9978 22.3901C44.325 22.6796 44.7478 22.8397 45.1859 22.8399C45.6241 22.84 46.0471 22.6803 46.3745 22.391L50.9374 18.3561C51.2916 18.0431 51.5061 17.6031 51.5338 17.133C51.5615 16.6628 51.4001 16.201 51.085 15.8491C50.77 15.4972 50.3271 15.284 49.8539 15.2565C49.3807 15.229 48.9159 15.3894 48.5617 15.7024L46.9735 17.1061V13.1657C46.9712 11.0403 46.1204 9.00268 44.6079 7.49969C43.0954 5.9967 41.0445 5.15112 38.9053 5.14844H29.7492C29.2752 5.14844 28.8206 5.33552 28.4854 5.66852C28.1502 6.00153 27.9619 6.45318 27.9619 6.92412C27.9619 7.39507 28.1502 7.84672 28.4854 8.17972C28.8206 8.51273 29.2752 8.69981 29.7492 8.69981H38.9049C40.0965 8.70123 41.2389 9.17224 42.0815 10.0095C42.924 10.8467 43.3978 11.9818 43.399 13.1657Z" fill="#559EC7"/>
</svg>
