<svg xmlns="http://www.w3.org/2000/svg">
<path d="M4.66667 0C2.08133 0 0 2.0813 0 4.6666V23.3333C0 25.9186 2.08133 28 4.66667 28H23.3333C25.9187 28 28 25.9186 28 23.3333V4.6666C28 2.0813 25.9187 0 23.3333 0H4.66667ZM8.53581 5.24995H19.4642C21.2626 5.24995 22.75 6.73733 22.75 8.53577V19.4641C22.75 21.2626 21.2626 22.7499 19.4642 22.7499H8.53581C6.73736 22.7499 5.25 21.2626 5.25 19.4641V8.53577C5.25 6.73733 6.73736 5.24995 8.53581 5.24995ZM8.53581 7.43745C7.91111 7.43745 7.4375 7.91108 7.4375 8.53577V19.4641C7.4375 20.0889 7.9111 20.5624 8.53581 20.5624H19.4642C20.0889 20.5624 20.5648 20.0888 20.5648 19.4641V8.53577C20.5648 7.91108 20.0889 7.43745 19.4642 7.43745H8.53581ZM18.375 8.53348C18.6647 8.53341 18.9426 8.6483 19.1477 8.85294C19.3527 9.05758 19.4682 9.33524 19.4688 9.62495C19.4688 9.76859 19.4405 9.91086 19.3856 10.0436C19.3306 10.1763 19.2501 10.2969 19.1485 10.3984C19.0469 10.5 18.9263 10.5806 18.7936 10.6355C18.6609 10.6905 18.5186 10.7187 18.375 10.7187C18.2314 10.7187 18.0891 10.6905 17.9564 10.6355C17.8237 10.5806 17.7031 10.5 17.6015 10.3984C17.4999 10.2969 17.4194 10.1763 17.3644 10.0436C17.3095 9.91086 17.2812 9.76859 17.2812 9.62495C17.2818 9.33524 17.3973 9.05758 17.6023 8.85294C17.8074 8.6483 18.0853 8.53341 18.375 8.53348ZM14 9.62495C16.4027 9.62495 18.375 11.5972 18.375 13.9999C18.375 16.4027 16.4027 18.3749 14 18.3749C11.5973 18.3749 9.625 16.4027 9.625 13.9999C9.625 11.5972 11.5973 9.62495 14 9.62495ZM14 11.8102C12.7792 11.8102 11.8125 12.7791 11.8125 13.9999C11.8125 15.2207 12.7792 16.1874 14 16.1874C15.2208 16.1874 16.1875 15.2207 16.1875 13.9999C16.1875 12.7791 15.2208 11.8102 14 11.8102Z"/>
</svg>
