<svg width="59" height="60" viewBox="0 0 59 60" fill="none" xmlns="http://www.w3.org/2000/svg">
<path d="M22.6076 23.6204C22.9615 23.6201 23.3009 23.4786 23.5512 23.2271C23.8015 22.9756 23.9423 22.6345 23.9426 22.2788V13.0573L13.8594 23.6208L22.6076 23.6204Z" fill="#559EC7"/>
<path d="M37.3891 11.9032C37.3891 11.8186 37.4 11.7366 37.4017 11.6523H26.5736C26.5987 11.7341 26.6156 11.8183 26.624 11.9035V22.2789C26.6229 23.3491 26.1993 24.3752 25.4463 25.1319C24.6933 25.8887 23.6723 26.3143 22.6074 26.3155H12.5732V56.6639C12.5732 57.3719 12.8531 58.0509 13.3512 58.5515C13.8493 59.0521 14.525 59.3333 15.2294 59.3333H48.4527C49.1572 59.3333 49.8328 59.0521 50.3309 58.5515C50.829 58.0509 51.1089 57.3719 51.1089 56.6639V23.671C49.4138 23.9541 47.6776 23.8613 46.0219 23.3992C44.3663 22.937 42.8312 22.1167 41.5241 20.9956C40.2171 19.8746 39.1697 18.4799 38.4554 16.9093C37.7411 15.3386 37.3771 13.63 37.3889 11.9032H37.3891ZM35.6108 52.2925H31.6545C30.5826 52.2912 29.5492 51.8899 28.755 51.1665C27.9607 50.443 27.462 49.4489 27.3555 48.3768L21.904 52.0639C21.6089 52.2635 21.247 52.3372 20.8978 52.2686C20.5487 52.2001 20.241 51.9949 20.0423 51.6984C19.8437 51.4018 19.7704 51.038 19.8386 50.6872C19.9068 50.3363 20.1109 50.027 20.406 49.8274L26.4166 45.7637C26.7643 45.5284 27.1691 45.3925 27.5877 45.3707C28.0063 45.3489 28.4229 45.442 28.7929 45.6401C29.1629 45.8381 29.4723 46.1335 29.6879 46.4948C29.9035 46.856 30.0173 47.2694 30.017 47.6907V47.953C30.0177 48.3892 30.1905 48.8073 30.4975 49.1156C30.8044 49.4239 31.2205 49.5973 31.6545 49.5977H35.611C35.7898 49.5934 35.9677 49.625 36.1342 49.6907C36.3007 49.7565 36.4524 49.855 36.5804 49.9806C36.7084 50.1062 36.8101 50.2562 36.8796 50.4218C36.949 50.5875 36.9848 50.7655 36.9848 50.9452C36.9848 51.125 36.949 51.303 36.8796 51.4686C36.8101 51.6343 36.7084 51.7843 36.5804 51.9099C36.4524 52.0354 36.3007 52.134 36.1342 52.1997C35.9677 52.2655 35.7898 52.2971 35.611 52.2927L35.6108 52.2925ZM35.6108 40.4468H20.1257C19.7754 40.4388 19.4421 40.2933 19.1971 40.0415C18.9522 39.7896 18.815 39.4514 18.815 39.0993C18.815 38.7471 18.9522 38.4089 19.1971 38.1571C19.4421 37.9052 19.7754 37.7597 20.1257 37.7517H35.611C35.9613 37.7597 36.2946 37.9052 36.5395 38.1571C36.7845 38.4089 36.9216 38.7471 36.9216 39.0993C36.9216 39.4514 36.7845 39.7896 36.5395 40.0415C36.2946 40.2933 35.9613 40.4388 35.611 40.4468H35.6108ZM43.0838 52.2925H41.046C40.6961 52.284 40.3633 52.1382 40.1188 51.8865C39.8743 51.6347 39.7375 51.2968 39.7375 50.945C39.7375 50.5932 39.8743 50.2554 40.1188 50.0036C40.3633 49.7518 40.6961 49.6061 41.046 49.5975H43.0838C43.4338 49.6061 43.7665 49.7518 44.011 50.0036C44.2555 50.2554 44.3924 50.5932 44.3924 50.945C44.3924 51.2968 44.2555 51.6347 44.011 51.8865C43.7665 52.1382 43.4338 52.284 43.0838 52.2925ZM43.0838 34.188H20.1257C19.7757 34.1794 19.443 34.0337 19.1985 33.7819C18.954 33.5301 18.8171 33.1923 18.8171 32.8405C18.8171 32.4887 18.954 32.1508 19.1985 31.899C19.443 31.6473 19.7757 31.5016 20.1257 31.493H43.0838C43.4338 31.5016 43.7665 31.6473 44.011 31.899C44.2555 32.1508 44.3924 32.4887 44.3924 32.8405C44.3924 33.1923 44.2555 33.5301 44.011 33.7819C43.7665 34.0337 43.4338 34.1794 43.0838 34.188Z" fill="#559EC7"/>
<path d="M12.0351 11.2927V2.07159L1.95215 12.6344H10.7001C11.0541 12.6341 11.3935 12.4926 11.6438 12.2411C11.8941 11.9895 12.0348 11.6484 12.0351 11.2927Z" fill="#559EC7"/>
<path d="M25.2847 8.95655H37.7715C38.0729 7.76924 38.5557 6.63609 39.2026 5.59749V3.33612C39.2026 2.62814 38.9228 1.94916 38.4247 1.44855C37.9265 0.94793 37.2509 0.666687 36.5465 0.666687H14.6673C14.6925 0.748373 14.7094 0.832401 14.7178 0.917496V11.2929C14.7167 12.3632 14.2931 13.3892 13.5401 14.146C12.7871 14.9028 11.7661 15.3285 10.7012 15.3296H0.666992V45.6783C0.666992 46.3862 0.946838 47.0652 1.44497 47.5658C1.9431 48.0664 2.6187 48.3477 3.32316 48.3477H9.89186V24.9681C9.89182 24.2725 10.1593 23.6038 10.6385 23.1018L23.3489 9.78606C23.5992 9.52379 23.8998 9.31511 24.2324 9.17255C24.5651 9.03001 24.923 8.95653 25.2847 8.95655Z" fill="#559EC7"/>
<path d="M49.2596 2.67102C47.4427 2.671 45.6666 3.21244 44.156 4.22686C42.6453 5.24128 41.4678 6.68313 40.7725 8.37008C40.0772 10.057 39.8953 11.9133 40.2497 13.7041C40.6042 15.495 41.4791 17.14 42.7638 18.4312C44.0485 19.7223 45.6853 20.6016 47.4673 20.9578C49.2492 21.314 51.0963 21.1312 52.7749 20.4325C54.4534 19.7337 55.8881 18.5504 56.8975 17.0322C57.9069 15.514 58.4457 13.7291 58.4457 11.9031C58.4457 9.45463 57.4779 7.10642 55.7551 5.37507C54.0324 3.64372 51.6959 2.67105 49.2596 2.67102ZM54.5083 9.7983L49.2651 15.8804C49.1392 16.0263 48.9836 16.1434 48.8087 16.2236C48.6339 16.3038 48.444 16.3454 48.2518 16.3455H48.2479C48.0551 16.345 47.8647 16.3027 47.6895 16.2216C47.5144 16.1405 47.3587 16.0225 47.2331 15.8755L44.76 12.9757C44.5284 12.7042 44.4136 12.3513 44.4409 11.9948C44.4682 11.6382 44.6354 11.3071 44.9055 11.0744C45.1757 10.8417 45.5268 10.7263 45.8816 10.7538C46.2364 10.7812 46.5658 10.9492 46.7974 11.2207L48.2578 12.9328L52.4811 8.03325C52.5964 7.89945 52.7368 7.78978 52.8943 7.7105C53.0518 7.63123 53.2233 7.5839 53.3989 7.57123C53.5746 7.55856 53.7511 7.58078 53.9182 7.63664C54.0853 7.69249 54.2399 7.78088 54.373 7.89677C54.5062 8.01265 54.6153 8.15375 54.6942 8.31201C54.773 8.47028 54.8201 8.64261 54.8327 8.81916C54.8454 8.99572 54.8232 9.17304 54.7677 9.34101C54.7121 9.50897 54.6241 9.66429 54.5088 9.7981L54.5083 9.7983Z" fill="#559EC7"/>
</svg>
