<svg width="80" height="80" viewBox="0 0 80 80" fill="none" xmlns="http://www.w3.org/2000/svg">
<path d="M39.9998 71.1111C57.182 71.1111 71.1109 57.1822 71.1109 40C71.1109 22.8178 57.182 8.88892 39.9998 8.88892C22.8176 8.88892 8.88867 22.8178 8.88867 40C8.88867 57.1822 22.8176 71.1111 39.9998 71.1111Z" fill="#559EC7"/>
<path d="M39.9997 65.9261C25.7042 65.9261 14.0737 54.2956 14.0737 40.0001C14.0737 25.7047 25.7042 14.0742 39.9997 14.0742C54.2957 14.0742 65.9256 25.7047 65.9256 40.0001C65.9256 54.2956 54.2957 65.9261 39.9997 65.9261Z" fill="#559EC7"/>
<path opacity="0.3" d="M38.6803 26.3889H32.8469L26.3887 32.8473V38.6806L43.2637 55.5556L55.5553 43.264L38.6803 26.3889ZM36.7898 36.7901C35.8395 37.7403 34.2989 37.7403 33.3487 36.7901C32.3985 35.8398 32.3985 34.2992 33.3487 33.3489C34.2989 32.3987 35.8395 32.3987 36.7898 33.3489C37.74 34.2992 37.74 35.8398 36.7898 36.7901Z" fill="#1C272D"/>
<path d="M37.7081 25.4167H31.8748L25.4165 31.875V37.7084L42.2916 54.5834L54.5832 42.2917L37.7081 25.4167ZM35.8176 35.8178C34.8673 36.7681 33.3268 36.7681 32.3765 35.8178C31.4263 34.8676 31.4263 33.3269 32.3765 32.3767C33.3267 31.4265 34.8673 31.4265 35.8176 32.3767C36.7678 33.3269 36.7678 34.8676 35.8176 35.8178Z" fill="#FAFAFA"/>
</svg>
