<svg width="31" height="74" viewBox="0 0 31 74" fill="none" xmlns="http://www.w3.org/2000/svg">
<path d="M17.5556 34V23.6666C19.5556 23.6666 20.8889 22.6666 20.8889 21.3333V2.66665C20.8889 1.33331 19.2222 0.333313 17.5556 0.333313H14.2222C12.2222 0.333313 10.8889 1.33331 10.8889 2.66665V21C10.8889 22.6666 12.2222 23.6666 14.2222 23.6666V33.6666C10.2222 34 5.55558 36.6666 0.888916 43.6666L12.2222 70.3333C12.2222 70.3333 14.2222 73.6666 15.8889 73.6666C17.5556 73.6666 19.5556 70.3333 19.5556 70.3333L30.8889 43.6666C30.8889 43.6666 25.2222 35.3333 17.5556 34Z" fill="#559EC7"/>
</svg>
