<svg width="59" height="56" viewBox="0 0 59 56" fill="none" xmlns="http://www.w3.org/2000/svg">
<path d="M20.2486 9.85597L23.0779 11.9171C23.4023 12.1535 23.6438 12.4869 23.7677 12.8693C23.8916 13.2518 23.8915 13.6638 23.7675 14.0462L22.6876 17.3814C22.5637 17.7638 22.5637 18.1757 22.6877 18.5581C22.8116 18.9405 23.0531 19.2738 23.3776 19.5101C23.702 19.7465 24.0927 19.8738 24.4938 19.8738C24.8948 19.8738 25.2855 19.7465 25.61 19.5102L28.4395 17.4491C28.764 17.2127 29.1547 17.0854 29.5557 17.0854C29.9567 17.0854 30.3475 17.2127 30.6719 17.4491L33.5015 19.5102C33.8259 19.7465 34.2167 19.8738 34.6177 19.8738C35.0187 19.8738 35.4094 19.7465 35.7339 19.5101C36.0583 19.2738 36.2998 18.9405 36.4237 18.5581C36.5477 18.1757 36.5477 17.7638 36.4239 17.3814L35.3426 14.0462C35.2187 13.6638 35.2186 13.2518 35.3425 12.8693C35.4664 12.4869 35.7079 12.1535 36.0323 11.9171L38.8617 9.85597C39.1861 9.61959 39.4276 9.28629 39.5515 8.90383C39.6754 8.52138 39.6754 8.10941 39.5515 7.72696C39.4276 7.34451 39.186 7.01123 38.8616 6.77487C38.5371 6.53851 38.1463 6.41121 37.7453 6.41122H34.2488C33.8477 6.41117 33.457 6.28385 33.1325 6.04749C32.8081 5.81113 32.5666 5.47787 32.4426 5.09544L31.3615 1.76029C31.2376 1.37783 30.9961 1.04452 30.6717 0.808147C30.3472 0.57177 29.9565 0.444458 29.5554 0.444458C29.1544 0.444458 28.7636 0.57177 28.4392 0.808147C28.1147 1.04452 27.8732 1.37783 27.7493 1.76029L26.6685 5.09544C26.5445 5.47795 26.3029 5.81127 25.9784 6.04764C25.6538 6.28401 25.263 6.41128 24.8619 6.41122H21.365C20.9639 6.41121 20.5732 6.53851 20.2487 6.77487C19.9242 7.01123 19.6827 7.34451 19.5588 7.72696C19.4348 8.10941 19.4348 8.52138 19.5588 8.90383C19.6827 9.28629 19.9242 9.61959 20.2486 9.85597Z" fill="#559EC7"/>
<path d="M34.7664 39.4135C34.5644 39.3264 34.3924 39.1819 34.2715 38.9978C34.1506 38.8136 34.0862 38.598 34.0863 38.3776C34.0849 38.2201 34.1157 38.064 34.177 37.9189C34.2383 37.7739 34.3286 37.643 34.4424 37.5344C34.5119 37.4681 34.5783 37.4027 34.6282 37.35C34.9804 36.9782 35.2911 36.569 35.5549 36.1296C36.2486 34.9688 36.5925 33.6314 36.5451 32.279C36.4976 30.9265 36.0609 29.6167 35.2875 28.5076C34.5142 27.3985 33.4372 26.5375 32.1867 26.0284C30.9361 25.5194 29.5654 25.3841 28.2398 25.6389C26.889 25.876 25.6407 26.5152 24.657 27.4734C23.6734 28.4315 23.0001 29.6642 22.7245 31.0112C22.4699 32.171 22.5132 33.3767 22.8505 34.5151C23.1878 35.6535 23.8079 36.6874 24.6528 37.5197C24.7674 37.6287 24.8592 37.7596 24.9227 37.9046C24.9862 38.0496 25.0202 38.2059 25.0227 38.3642V38.3701C25.0247 38.5924 24.9613 38.8103 24.8403 38.9965C24.7193 39.1827 24.5462 39.329 24.3426 39.417C21.5563 40.5742 19.3344 42.7819 18.1549 45.565C17.3257 47.471 16.9098 49.5319 16.9346 51.6111V53.1094C16.9346 53.4307 16.9978 53.7489 17.1204 54.0457C17.2431 54.3425 17.4228 54.6122 17.6495 54.8394C17.8761 55.0665 18.1451 55.2467 18.4412 55.3696C18.7373 55.4925 19.0546 55.5557 19.375 55.5556H39.7398C40.3867 55.5555 41.0072 55.2978 41.4646 54.8391C41.9221 54.3804 42.179 53.7583 42.179 53.1096V51.5963C42.2038 49.5178 41.7872 47.4578 40.9567 45.5533C39.7751 42.7726 37.5523 40.568 34.7664 39.4135Z" fill="#559EC7"/>
<path d="M57.2208 42.1744C56.0394 39.3939 53.8168 37.1893 51.0311 36.0347C50.8292 35.9475 50.6572 35.803 50.5364 35.6189C50.4155 35.4348 50.3511 35.2192 50.3511 34.9988C50.3497 34.8413 50.3806 34.6851 50.4419 34.5401C50.5031 34.395 50.5935 34.2641 50.7073 34.1555C50.7767 34.0891 50.8434 34.0238 50.8929 33.971C51.2452 33.5995 51.556 33.1905 51.8197 32.7513C52.5136 31.5905 52.8576 30.2531 52.8102 28.9006C52.7628 27.5481 52.3261 26.2383 51.5527 25.1291C50.7794 24.02 49.7024 23.1589 48.4518 22.6499C47.2012 22.1409 45.8304 22.0056 44.5049 22.2604C43.154 22.4975 41.9056 23.1367 40.922 24.0948C39.9384 25.053 39.265 26.2857 38.9896 27.6327C38.7349 28.7925 38.7782 29.9982 39.1154 31.1367C39.4527 32.2751 40.0728 33.309 40.9176 34.1413C41.0323 34.2502 41.1241 34.3811 41.1876 34.5261C41.2511 34.6711 41.2851 34.8274 41.2876 34.9857V34.9918C41.2897 35.214 41.2263 35.432 41.1053 35.6182C40.9843 35.8045 40.8111 35.9507 40.6075 36.0386C39.4947 36.4957 38.4616 37.1275 37.5469 37.9102C40.1132 39.4359 42.1315 41.7377 43.312 44.4852C44.297 46.7246 44.7922 49.1496 44.7641 51.5971V52.1775H56.0039C56.6508 52.1775 57.2713 51.9198 57.7288 51.4611C58.1863 51.0024 58.4433 50.3803 58.4433 49.7316V48.2174C58.4681 46.1389 58.0514 44.0789 57.2208 42.1744Z" fill="#559EC7"/>
<path d="M21.5675 37.9095C20.651 37.1249 19.6154 36.492 18.4999 36.0347C18.298 35.9476 18.126 35.803 18.0051 35.6189C17.8842 35.4348 17.8198 35.2192 17.8198 34.9988C17.8184 34.8413 17.8493 34.6851 17.9106 34.54C17.9719 34.395 18.0623 34.2641 18.1762 34.1556C18.2454 34.0891 18.312 34.0238 18.3618 33.9711C18.714 33.5995 19.0247 33.1905 19.2884 32.7513C19.9822 31.5905 20.3263 30.2532 20.2789 28.9006C20.2316 27.5481 19.7948 26.2383 19.0215 25.1291C18.2481 24.02 17.1712 23.1589 15.9206 22.6499C14.6699 22.1409 13.2992 22.0056 11.9736 22.2604C10.6228 22.4976 9.37437 23.1368 8.39073 24.0949C7.40709 25.053 6.73373 26.2857 6.45821 27.6328C6.2036 28.7926 6.24695 29.9982 6.58421 31.1367C6.92146 32.2751 7.54156 33.309 8.38636 34.1413C8.50104 34.2502 8.59285 34.3811 8.65638 34.5261C8.7199 34.6711 8.75387 34.8274 8.75628 34.9857V34.9918C8.75837 35.2141 8.69494 35.432 8.57395 35.6182C8.45296 35.8045 8.2798 35.9507 8.07621 36.0386C5.28997 37.1959 3.06808 39.4035 1.88852 42.1866C1.05928 44.0926 0.643271 46.1534 0.668036 48.2327V49.7317C0.668024 50.0529 0.731108 50.3709 0.853688 50.6677C0.976267 50.9644 1.15594 51.234 1.38245 51.4611C1.60896 51.6883 1.87786 51.8684 2.17381 51.9913C2.46976 52.1142 2.78696 52.1775 3.10729 52.1775H14.348V51.6115C14.3201 49.1642 14.8141 46.7391 15.7969 44.4988C16.9764 41.7453 18.9969 39.4382 21.5675 37.9095Z" fill="#559EC7"/>
</svg>
