<svg xmlns="http://www.w3.org/2000/svg">
<path d="M4.66667 0C2.08133 0 0 2.0813 0 4.6666V23.3333C0 25.9186 2.08133 28 4.66667 28H23.3333C25.9187 28 28 25.9186 28 23.3333V4.6666C28 2.0813 25.9187 0 23.3333 0H4.66667ZM22.0596 6.66961C22.6705 6.719 22.8494 7.30011 22.7021 7.98203L19.9746 20.6149C19.7972 21.4365 19.1801 21.5379 18.4365 20.9955L14.5833 18.1836L12.4665 20.2275C12.1344 20.5476 11.5173 20.6407 11.334 20.0794L9.74576 15.2098L5.99056 14.025C4.5427 13.5676 5.57977 12.9189 6.07036 12.7284L21.3008 6.81535C21.6044 6.69762 21.856 6.65532 22.0596 6.67163L22.0596 6.66961ZM19.3571 9.29916C19.2646 9.3168 19.1606 9.35519 19.0654 9.41516L10.4727 14.8612C10.4213 14.892 10.3643 14.8876 10.4179 15.0525L11.8079 19.3181L12.0905 16.4196C12.0963 16.3636 12.0986 16.327 12.161 16.2714L19.4163 9.75911C19.8171 9.3993 19.6343 9.24973 19.357 9.29889L19.3571 9.29916Z"/>
</svg>
