<svg xmlns="http://www.w3.org/2000/svg">
<path d="M3.03249 0C1.35249 0 0 1.35249 0 3.03249V24.9675C0 26.6475 1.35249 28 3.03249 28H24.9675C26.6475 28 28 26.6475 28 24.9675V3.03249C28 1.35249 26.6475 0 24.9675 0H3.03249ZM14.7771 7.44855C15.0321 7.44734 15.3636 7.49277 15.5731 7.63808C15.7276 7.74521 15.9307 7.86919 15.9332 8.35198C15.9414 9.93148 15.9223 11.3073 15.9459 12.9197C15.9766 13.2553 16.1947 13.3945 16.4007 13.3935C16.6068 13.3925 16.8431 13.2637 17.0199 13.0903C17.977 12.1505 19.0797 9.8903 19.7554 8.40884C20.0076 7.85599 20.4145 7.89147 20.8736 7.89079C22.411 7.88853 23.0335 7.90798 24.4747 7.91606C24.7386 7.91748 24.9686 8.14041 25.0433 8.30144C25.1078 8.4405 25.1541 8.84332 24.8032 9.41336C23.7241 11.167 22.7318 12.5792 21.5307 14.2464C21.4549 14.3515 21.3829 14.4769 21.3854 14.6065C21.3876 14.725 21.449 14.8428 21.5307 14.9287C22.6017 16.0553 23.7196 17.189 24.8159 18.4287C25.1389 18.794 24.9361 19.3574 24.8475 19.5153C24.7803 19.635 24.4771 19.9433 24.2726 19.9449C23.5276 19.9509 23.5257 19.9449 20.4061 19.9449C19.9442 19.9449 19.7597 19.81 19.5153 19.5532C18.4337 18.417 18.567 18.5542 17.38 17.2852C17.2257 17.1203 16.9201 16.9132 16.6282 17.0451C16.3804 17.1571 15.9269 17.3224 15.9269 17.778C15.9269 18.264 15.9269 18.8881 15.9269 19.37C15.9269 19.6592 15.4732 19.8754 15.2004 19.8754C14.5563 19.8754 14.0423 19.8754 13.0776 19.8754C12.0783 19.8754 11.2133 19.6345 10.7338 19.4016C8.66782 18.3984 7.43958 17.0012 6.09657 14.676C4.94976 12.6904 3.95187 10.7356 2.96931 8.68682C2.85954 8.45793 2.78154 7.95397 3.60108 7.95397C4.46691 7.95397 5.27889 7.93503 6.59567 7.93503C6.98223 7.93503 7.22266 8.01286 7.38538 8.13087C7.5481 8.24889 7.62813 8.40621 7.70758 8.55416C9.3458 11.6046 9.34952 11.7913 10.519 13.3051C10.6287 13.4472 10.7871 13.4687 10.9043 13.4693C11.0492 13.4701 11.1833 13.4466 11.296 13.3556C11.5328 13.1646 11.5993 12.96 11.5993 12.667C11.5993 11.6401 11.5993 10.8729 11.5993 9.58394C11.5993 9.23044 11.3598 8.70639 11.0939 8.54152C10.8183 8.38292 10.3655 8.22579 10.38 8.02979C10.3958 7.81543 10.8947 7.45488 11.7825 7.45488C12.844 7.45488 13.5963 7.45407 14.7771 7.44857V7.44855Z"/>
</svg>
