<svg xmlns="http://www.w3.org/2000/svg">
<path fill-rule="evenodd" clip-rule="evenodd" d="M5.83333 0C2.61167 0 0 2.61167 0 5.83333V22.1667C0 25.3883 2.61167 28 5.83333 28H22.1667C25.3883 28 28 25.3883 28 22.1667V5.83333C28 2.61167 25.3883 0 22.1667 0H5.83333ZM11.3796 7C7.67265 7 4.66667 9.51595 4.66667 12.6197C4.66667 14.4219 5.67996 16.0259 7.25554 17.0543L6.7869 18.7036C6.78237 18.7193 6.78269 18.7359 6.78781 18.7514C6.79292 18.7668 6.80261 18.7804 6.81558 18.7902C6.82854 18.8 6.84419 18.8057 6.86045 18.8064C6.8767 18.8072 6.8928 18.803 6.90663 18.7944L8.63859 17.7512C9.47536 18.0649 10.4028 18.2394 11.379 18.2394C11.3951 18.2394 11.4113 18.2384 11.4274 18.2374C11.4433 18.2365 11.4592 18.2355 11.4749 18.2355C11.35 16.9151 11.4324 14.5929 13.2334 13.2455C13.2334 13.2455 15.2636 11.5845 17.9966 11.7177C17.4804 9.04663 14.7184 7 11.3796 7ZM9.07137 11.728C8.89212 11.728 8.71689 11.6749 8.56785 11.5753C8.41881 11.4757 8.30265 11.3341 8.23405 11.1685C8.16546 11.0028 8.14751 10.8206 8.18248 10.6447C8.21745 10.4689 8.30377 10.3074 8.43051 10.1806C8.55726 10.0538 8.71875 9.9675 8.89455 9.93253C9.07036 9.89755 9.25259 9.9155 9.41819 9.98411C9.5838 10.0527 9.72534 10.1689 9.82493 10.318C9.92451 10.467 9.97767 10.6423 9.97767 10.8216C9.97767 11.062 9.88218 11.2925 9.71222 11.4625C9.54225 11.6325 9.31173 11.728 9.07137 11.728ZM13.5771 11.728C13.3979 11.728 13.2226 11.6749 13.0736 11.5753C12.9246 11.4757 12.8084 11.3341 12.7398 11.1685C12.6712 11.0028 12.6533 10.8206 12.6882 10.6447C12.7232 10.4689 12.8095 10.3074 12.9363 10.1806C13.063 10.0538 13.2245 9.9675 13.4003 9.93253C13.5761 9.89755 13.7583 9.9155 13.9239 9.98411C14.0896 10.0527 14.2311 10.1689 14.3307 10.318C14.4303 10.467 14.4834 10.6423 14.4834 10.8216C14.4834 11.0619 14.388 11.2923 14.2182 11.4623C14.0484 11.6323 13.818 11.7279 13.5778 11.728H13.5771ZM17.6953 12.1768C14.5819 12.1768 12.058 14.2659 12.058 16.8437C12.058 19.4214 14.5793 21.5106 17.6953 21.5106C18.4362 21.5106 19.1434 21.3925 19.7912 21.1778L21.2826 22.1536C21.2962 22.1624 21.3121 22.167 21.3283 22.1666C21.3445 22.1663 21.3603 22.1611 21.3735 22.1518C21.3867 22.1424 21.3968 22.1293 21.4026 22.1142C21.4083 22.099 21.4093 22.0825 21.4056 22.0667L21.0454 20.5984C22.4338 19.7484 23.3333 18.3832 23.3333 16.8437C23.3333 14.2659 20.8088 12.1768 17.6953 12.1768ZM15.8061 16.1567C15.6406 16.1567 15.4789 16.1077 15.3413 16.0157C15.2036 15.9237 15.0964 15.793 15.0331 15.6401C14.9697 15.4872 14.9532 15.3189 14.9854 15.1565C15.0177 14.9942 15.0974 14.8451 15.2145 14.728C15.3315 14.611 15.4806 14.5313 15.6429 14.499C15.8052 14.4667 15.9735 14.4832 16.1264 14.5466C16.2793 14.6099 16.41 14.7172 16.5019 14.8548C16.5939 14.9925 16.6429 15.1543 16.6429 15.3198C16.6429 15.5418 16.5548 15.7547 16.3978 15.9116C16.2409 16.0686 16.0281 16.1567 15.8061 16.1567ZM19.5517 16.1567C19.3862 16.1567 19.2244 16.1077 19.0868 16.0157C18.9492 15.9237 18.842 15.793 18.7786 15.6401C18.7153 15.4872 18.6987 15.3189 18.731 15.1565C18.7633 14.9942 18.843 14.8451 18.96 14.728C19.0771 14.611 19.2262 14.5313 19.3885 14.499C19.5508 14.4667 19.719 14.4832 19.8719 14.5466C20.0248 14.6099 20.1555 14.7172 20.2475 14.8548C20.3394 14.9925 20.3885 15.1543 20.3885 15.3198C20.3885 15.4297 20.3669 15.5386 20.3248 15.6401C20.2828 15.7416 20.2211 15.8339 20.1434 15.9116C20.0657 15.9893 19.9735 16.051 19.8719 16.093C19.7704 16.1351 19.6616 16.1567 19.5517 16.1567Z"/>
</svg>
